<?xml version="1.0" encoding="UTF-8"?>
<svg version="1.1" xmlns="http://www.w3.org/2000/svg" width="32" height="32">
<path d="M0 0 C0.97517578 0.00966797 1.95035156 0.01933594 2.95507812 0.02929688 C10.1443655 0.1443655 10.1443655 0.1443655 11.3125 1.3125 C11.39881874 2.65517413 11.41956473 4.00224322 11.41015625 5.34765625 C11.40693359 6.15654297 11.40371094 6.96542969 11.40039062 7.79882812 C11.39201172 8.64896484 11.38363281 9.49910156 11.375 10.375 C11.37048828 11.22900391 11.36597656 12.08300781 11.36132812 12.96289062 C11.34950373 15.07945663 11.33156769 17.19598685 11.3125 19.3125 C12.3025 19.6425 13.2925 19.9725 14.3125 20.3125 C14.80358896 27.67883445 14.80358896 27.67883445 12.67944336 30.41967773 C9.62080232 32.8656441 7.93231657 32.78955911 4.05078125 32.73828125 C2.85001953 32.72990234 1.64925781 32.72152344 0.41210938 32.71289062 C-0.83763672 32.68388672 -2.08738281 32.65488281 -3.375 32.625 C-4.63634766 32.61533203 -5.89769531 32.60566406 -7.19726562 32.59570312 C-16.51976128 32.48023872 -16.51976128 32.48023872 -17.6875 31.3125 C-17.82865161 28.64191149 -17.72997107 25.98817762 -17.6875 23.3125 C-16.6975 22.9825 -15.7075 22.6525 -14.6875 22.3125 C-14.73390625 21.05953125 -14.7803125 19.8065625 -14.828125 18.515625 C-14.86564813 16.86460719 -14.90204771 15.21356358 -14.9375 13.5625 C-14.97101562 12.7375 -15.00453125 11.9125 -15.0390625 11.0625 C-15.0973838 7.44657963 -15.0430209 4.98747446 -13.33984375 1.75390625 C-9.05194373 -0.57633691 -4.78984878 -0.14417605 0 0 Z " fill="#B0B2B0" transform="translate(17.6875,-0.3125)"/>
<path d="M0 0 C0.86931152 0.01047363 1.73862305 0.02094727 2.63427734 0.03173828 C3.57529297 0.03818359 4.51630859 0.04462891 5.48583984 0.05126953 C6.47068359 0.06802734 7.45552734 0.08478516 8.47021484 0.10205078 C9.46279297 0.11107422 10.45537109 0.12009766 11.47802734 0.12939453 C13.93399618 0.15300962 16.38948653 0.18594279 18.84521484 0.22705078 C18.51521484 0.88705078 18.18521484 1.54705078 17.84521484 2.22705078 C17.61234572 5.10772815 17.42575544 7.96717597 17.28271484 10.85205078 C17.13833984 13.61580078 16.99396484 16.37955078 16.84521484 19.22705078 C9.91521484 19.22705078 2.98521484 19.22705078 -4.15478516 19.22705078 C-4.19603516 16.46330078 -4.23728516 13.69955078 -4.27978516 10.85205078 C-4.29799316 9.98273926 -4.31620117 9.11342773 -4.33496094 8.21777344 C-4.34952254 6.220016 -4.25435241 4.22237862 -4.15478516 2.22705078 C-2.15478516 0.22705078 -2.15478516 0.22705078 0 0 Z " fill="#D7D7D7" transform="translate(8.15478515625,0.77294921875)"/>
<path d="M0 0 C3.47914941 -0.02887814 6.95826831 -0.04675687 10.4375 -0.0625 C11.92733398 -0.07506836 11.92733398 -0.07506836 13.44726562 -0.08789062 C14.39150391 -0.09111328 15.33574219 -0.09433594 16.30859375 -0.09765625 C17.62041626 -0.10551147 17.62041626 -0.10551147 18.95874023 -0.11352539 C21 0 21 0 22 1 C22.15357265 3.97104013 22.23168121 6.90277553 22.25 9.875 C22.270625 10.70386719 22.29125 11.53273438 22.3125 12.38671875 C22.31765625 13.18464844 22.3228125 13.98257812 22.328125 14.8046875 C22.34214355 15.90272705 22.34214355 15.90272705 22.35644531 17.02294922 C22 19 22 19 20.81225586 20.74389648 C18.33729474 22.45933162 16.67008465 22.34259809 13.67578125 22.29296875 C12.64775391 22.28330078 11.61972656 22.27363281 10.56054688 22.26367188 C8.95276367 22.2259668 8.95276367 22.2259668 7.3125 22.1875 C6.22904297 22.17396484 5.14558594 22.16042969 4.02929688 22.14648438 C1.35265296 22.11111023 -1.32373575 22.05730304 -4 22 C-4 16.06 -4 10.12 -4 4 C-3.67 4 -3.34 4 -3 4 C-3 9.28 -3 14.56 -3 20 C3.93 20 10.86 20 18 20 C17.96042519 14.45026879 17.96042519 14.45026879 17.90991211 8.90063477 C17.90276909 6.93354026 17.94968107 4.96646379 18 3 C18.33 2.67 18.66 2.34 19 2 C12.73 1.67 6.46 1.34 0 1 C0 0.67 0 0.34 0 0 Z " fill="#5C5C5C" transform="translate(7,0)"/>
<path d="M0 0 C4.95 0 9.9 0 15 0 C15 0.33 15 0.66 15 1 C9.06 1.495 9.06 1.495 3 2 C5.97 2.33 8.94 2.66 12 3 C12.66 5.64 13.32 8.28 14 11 C9.38 11 4.76 11 0 11 C0 7.37 0 3.74 0 0 Z " fill="#000000" transform="translate(7,6)"/>
<path d="M0 0 C5.61 0 11.22 0 17 0 C17 4.29 17 8.58 17 13 C11.39 13 5.78 13 0 13 C0 8.71 0 4.42 0 0 Z M1 1 C1 4.63 1 8.26 1 12 C5.62 12 10.24 12 15 12 C14.34 9.36 13.68 6.72 13 4 C10.03 3.67 7.06 3.34 4 3 C9.94 2.505 9.94 2.505 16 2 C16 1.67 16 1.34 16 1 C11.05 1 6.1 1 1 1 Z " fill="#808080" transform="translate(6,5)"/>
<path d="M0 0 C0.66 0.33 1.32 0.66 2 1 C2.49099596 8.36493936 2.49099596 8.36493936 0.36914062 11.109375 C-2.70415647 13.56193196 -4.40083551 13.46413518 -8.296875 13.390625 C-9.50214844 13.37773438 -10.70742188 13.36484375 -11.94921875 13.3515625 C-13.20347656 13.31804688 -14.45773438 13.28453125 -15.75 13.25 C-17.01972656 13.23195313 -18.28945313 13.21390625 -19.59765625 13.1953125 C-22.73253077 13.14817153 -25.8658856 13.08237664 -29 13 C-29 12.67 -29 12.34 -29 12 C-16.625 11.505 -16.625 11.505 -4 11 C-3.67 8.69 -3.34 6.38 -3 4 C-1.4375 1.5625 -1.4375 1.5625 0 0 Z " fill="#3C3C3C" transform="translate(30,19)"/>
<path d="M0 0 C1.97119141 -0.34057617 1.97119141 -0.34057617 4.3515625 -0.29296875 C5.62773437 -0.2784668 5.62773437 -0.2784668 6.9296875 -0.26367188 C7.81914062 -0.23853516 8.70859375 -0.21339844 9.625 -0.1875 C10.97078125 -0.16719727 10.97078125 -0.16719727 12.34375 -0.14648438 C14.56309789 -0.11106925 16.78125188 -0.06168461 19 0 C18.01 1.485 18.01 1.485 17 3 C15.02880859 3.34057617 15.02880859 3.34057617 12.6484375 3.29296875 C11.79765625 3.28330078 10.946875 3.27363281 10.0703125 3.26367188 C9.18085938 3.23853516 8.29140625 3.21339844 7.375 3.1875 C6.4778125 3.17396484 5.580625 3.16042969 4.65625 3.14648438 C2.43690211 3.11106925 0.21874812 3.06168461 -2 3 C-1.34 2.01 -0.68 1.02 0 0 Z " fill="#D7D7D7" transform="translate(8,1)"/>
<path d="M0 0 C4.29 0 8.58 0 13 0 C13 3.3 13 6.6 13 10 C12.01 9.34 11.02 8.68 10 8 C9.8125 4.875 9.8125 4.875 10 2 C7.03 2 4.06 2 1 2 C0.67 1.34 0.34 0.68 0 0 Z " fill="#FFFFFF" transform="translate(9,7)"/>
<path d="M0 0 C0.66 0 1.32 0 2 0 C1.34 1.32 0.68 2.64 0 4 C-8.91 4 -17.82 4 -27 4 C-27 3.67 -27 3.34 -27 3 C-25.87972412 2.970271 -25.87972412 2.970271 -24.73681641 2.93994141 C-21.36584395 2.84491789 -17.99551071 2.73514741 -14.625 2.625 C-13.449375 2.5940625 -12.27375 2.563125 -11.0625 2.53125 C-9.94101562 2.49257813 -8.81953125 2.45390625 -7.6640625 2.4140625 C-6.62717285 2.3826416 -5.5902832 2.3512207 -4.52197266 2.31884766 C-1.83190165 2.24045528 -1.83190165 2.24045528 0 0 Z " fill="#858585" transform="translate(28,19)"/>
<path d="M0 0 C2.01920337 1.30406884 4.01924973 2.63823419 6 4 C6 4.33 6 4.66 6 5 C4.02 5 2.04 5 0 5 C0 3.35 0 1.7 0 0 Z " fill="#F0F0F0" transform="translate(12,10)"/>
</svg>
