<?xml version="1.0" standalone="no"?>
<!DOCTYPE svg PUBLIC "-//W3C//DTD SVG 20010904//EN"
 "http://www.w3.org/TR/2001/REC-SVG-20010904/DTD/svg10.dtd">
<svg version="1.0" xmlns="http://www.w3.org/2000/svg"
 width="1920.000000pt" height="1080.000000pt" viewBox="0 0 1920.000000 1080.000000"
 preserveAspectRatio="xMidYMid meet">

<g transform="translate(0.000000,1080.000000) scale(0.100000,-0.100000)"
fill="#000000" stroke="none">
<path d="M10664 5981 c-47 -12 -52 -17 -84 -87 -16 -36 -47 -86 -70 -111 -58
-66 -57 -103 5 -236 59 -128 65 -132 230 -131 165 1 219 17 286 84 88 89 103
219 38 341 -38 71 -87 112 -162 134 -52 16 -188 19 -243 6z m265 -91 c147 -75
160 -288 23 -384 -37 -26 -54 -31 -117 -34 -89 -5 -135 9 -186 55 -50 45 -73
106 -67 180 8 107 59 172 156 200 58 16 141 9 191 -17z"/>
<path d="M6920 5964 c-110 -21 -176 -99 -150 -178 22 -67 58 -86 219 -117 141
-27 171 -45 171 -100 0 -74 -49 -103 -170 -103 -61 0 -104 6 -153 22 -37 12
-72 20 -77 17 -20 -13 -9 -33 28 -48 75 -32 119 -40 204 -40 104 1 169 27 206
83 43 64 18 156 -48 182 -14 5 -76 21 -138 34 -121 26 -166 44 -176 69 -40
106 96 163 277 116 72 -19 77 -18 77 10 0 13 -14 23 -52 34 -56 16 -176 27
-218 19z"/>
<path d="M8222 5955 c-98 -27 -160 -87 -187 -179 -12 -38 -15 -109 -15 -298
l0 -248 30 0 30 0 0 133 c0 74 3 136 6 140 4 3 23 -7 43 -23 53 -43 115 -62
201 -63 168 -1 284 110 284 273 -1 117 -58 206 -161 252 -59 26 -164 32 -231
13z m216 -67 c117 -56 153 -225 72 -336 -39 -55 -100 -82 -182 -82 -140 0
-227 65 -243 182 -17 123 52 228 170 259 45 12 135 1 183 -23z"/>
<path d="M8939 5957 c-152 -43 -232 -203 -183 -366 20 -69 84 -133 157 -157
102 -35 267 -13 339 45 19 16 20 21 10 34 -12 14 -19 13 -63 -11 -39 -20 -69
-27 -135 -30 -104 -6 -157 12 -208 68 -35 39 -62 108 -48 122 4 4 118 9 252
10 l245 3 -3 49 c-4 91 -59 178 -135 215 -54 26 -167 35 -228 18z m188 -61
c59 -28 104 -86 106 -138 l2 -33 -210 0 -210 0 -3 23 c-2 12 8 42 22 66 57 97
184 132 293 82z"/>
<path d="M10018 5956 c-69 -19 -122 -58 -147 -109 -20 -41 -21 -57 -19 -233 3
-181 4 -189 23 -189 19 0 20 8 25 180 5 157 8 185 27 220 62 119 273 126 357
12 19 -26 21 -46 26 -220 l5 -192 25 0 25 0 3 184 c2 180 2 186 -22 235 -30
59 -75 93 -149 113 -63 16 -117 16 -179 -1z"/>
<path d="M12051 5960 c-49 -11 -116 -47 -148 -82 -36 -38 -66 -117 -67 -178
-2 -120 56 -216 156 -260 103 -45 265 -23 329 46 33 36 49 31 49 -15 0 -34 3
-39 26 -44 16 -3 28 0 31 9 2 7 3 84 1 171 -3 134 -6 165 -24 203 -26 56 -76
107 -130 131 -49 22 -162 32 -223 19z m203 -73 c59 -33 95 -84 107 -153 15
-79 0 -132 -52 -189 -55 -59 -108 -78 -203 -73 -63 3 -81 8 -118 33 -114 80
-121 279 -11 362 73 56 197 65 277 20z"/>
<path d="M7354 5946 c-3 -8 -4 -98 -2 -198 3 -163 6 -187 25 -223 42 -81 99
-108 223 -108 125 0 187 31 233 118 20 37 21 56 22 230 l0 190 -27 3 -28 3 0
-168 c0 -223 -14 -268 -95 -311 -45 -23 -172 -21 -216 4 -65 39 -73 66 -79
279 -5 188 -5 190 -28 193 -13 2 -24 -3 -28 -12z"/>
<path d="M9626 5949 c-76 -11 -132 -47 -157 -102 -16 -36 -19 -67 -19 -230 l0
-188 28 3 27 3 5 190 c4 160 8 195 23 218 24 37 72 59 142 66 51 5 60 9 60 26
0 24 -23 27 -109 14z"/>
<path d="M11176 5952 c-18 -30 226 -519 262 -523 4 0 17 -2 29 -5 29 -5 57 30
130 159 55 98 162 338 163 365 0 7 -12 12 -29 12 -27 0 -30 -5 -61 -87 -70
-187 -175 -383 -205 -383 -26 0 -133 200 -195 365 -33 87 -41 100 -63 103 -14
2 -28 -1 -31 -6z"/>
<path d="M10800 4977 c0 -53 3 -98 8 -100 9 -6 7 181 -2 190 -3 3 -6 -37 -6
-90z"/>
<path d="M9081 4975 l2 -70 7 60 c5 34 4 64 -1 70 -5 5 -8 -18 -8 -60z"/>
<path d="M8165 4990 c-10 -11 -16 -22 -14 -24 2 -2 12 7 22 20 22 29 17 32 -8
4z"/>
<path d="M8295 4990 c21 -24 26 -25 19 -6 -3 8 -13 17 -22 21 -13 5 -13 2 3
-15z"/>
<path d="M9346 4988 c10 -14 21 -24 23 -22 3 3 -6 15 -18 27 l-24 22 19 -27z"/>
<path d="M9750 4932 l5 -77 3 69 c2 38 -1 73 -5 77 -4 4 -6 -27 -3 -69z"/>
<path d="M10360 4995 c-6 -8 -10 -19 -8 -26 2 -6 9 0 16 15 13 29 10 33 -8 11z"/>
<path d="M10622 4995 c11 -13 18 -43 21 -85 l3 -65 2 66 c2 57 -1 68 -20 85
-23 19 -23 19 -6 -1z"/>
<path d="M11054 4993 c11 -13 16 -31 13 -43 -3 -14 -1 -20 6 -17 17 6 9 39
-16 62 l-21 20 18 -22z"/>
<path d="M11152 4998 c-17 -17 -15 -33 5 -49 15 -13 15 -12 6 6 -8 13 -8 26
-2 37 11 21 8 23 -9 6z"/>
<path d="M7941 4982 c-17 -31 -13 -40 5 -14 9 13 14 26 11 29 -3 2 -10 -4 -16
-15z"/>
<path d="M8400 4981 c-12 -24 -13 -34 -1 -27 9 6 22 46 15 46 -2 0 -8 -9 -14
-19z"/>
<path d="M8779 4983 c6 -12 8 -29 5 -37 -3 -9 -1 -16 5 -16 16 0 13 33 -5 56
-15 18 -15 18 -5 -3z"/>
<path d="M9976 4987 c3 -10 9 -15 12 -12 3 3 0 11 -7 18 -10 9 -11 8 -5 -6z"/>
<path d="M10920 4981 c-22 -43 -8 -112 27 -125 14 -6 14 -3 -4 16 -16 17 -20
34 -19 64 2 23 6 46 10 53 4 6 5 11 2 11 -3 0 -10 -9 -16 -19z"/>
<path d="M8629 4963 c-12 -33 -3 -77 19 -95 15 -11 15 -11 4 3 -7 10 -11 37
-9 68 1 28 1 51 0 51 -2 0 -8 -12 -14 -27z"/>
<path d="M8866 4975 c-3 -9 -6 -22 -5 -28 0 -7 5 -1 10 12 5 13 8 26 5 28 -2
2 -6 -3 -10 -12z"/>
<path d="M9202 4978 c-7 -7 -11 -28 -10 -47 l1 -36 4 35 c3 19 9 41 15 47 13
16 6 17 -10 1z"/>
<path d="M10273 4925 c0 -38 2 -53 4 -32 2 20 2 52 0 70 -2 17 -4 1 -4 -38z"/>
<path d="M10487 4969 c4 -16 8 -17 14 -7 13 19 11 28 -5 28 -9 0 -12 -7 -9
-21z"/>
<path d="M10723 4915 c0 -33 2 -45 4 -27 2 18 2 45 0 60 -2 15 -4 0 -4 -33z"/>
<path d="M8393 4900 c0 -25 2 -35 4 -22 2 12 2 32 0 45 -2 12 -4 2 -4 -23z"/>
<path d="M8861 4915 c-1 -23 6 -34 34 -55 18 -13 18 -12 -2 10 -11 14 -23 34
-26 45 l-5 20 -1 -20z"/>
<path d="M9650 4917 c18 -10 24 -20 22 -38 -2 -19 0 -21 8 -9 5 8 10 18 10 22
0 13 -32 38 -48 38 -12 0 -9 -4 8 -13z"/>
<path d="M11250 4917 c14 -8 27 -12 30 -10 7 6 -23 23 -40 23 -8 0 -4 -6 10
-13z"/>
<path d="M9362 4901 c-10 -16 -11 -26 -3 -34 15 -15 23 -3 19 30 l-3 28 -13
-24z"/>
<path d="M8150 4898 c0 -9 7 -22 17 -29 15 -13 15 -12 3 11 -17 34 -20 36 -20
18z"/>
<path d="M7940 4880 c6 -11 16 -20 22 -20 6 0 3 9 -7 20 -10 11 -20 20 -22 20
-2 0 1 -9 7 -20z"/>
<path d="M8299 4873 c-13 -16 -12 -17 4 -4 9 7 17 15 17 17 0 8 -8 3 -21 -13z"/>
<path d="M9215 4870 c10 -11 20 -20 23 -20 3 0 -3 9 -13 20 -10 11 -20 20 -23
20 -3 0 3 -9 13 -20z"/>
<path d="M10988 4843 c7 -3 16 -2 19 1 4 3 -2 6 -13 5 -11 0 -14 -3 -6 -6z"/>
</g>
</svg>
